<?xml version="1.0" encoding="utf-8"?>
<!-- Generator: Adobe Illustrator 17.0.2, SVG Export Plug-In . SVG Version: 6.00 Build 0)  -->
<!DOCTYPE svg PUBLIC "-//W3C//DTD SVG 1.0//EN" "http://www.w3.org/TR/2001/REC-SVG-20010904/DTD/svg10.dtd">
<svg version="1.0" id="Layer_1" xmlns="http://www.w3.org/2000/svg" xmlns:xlink="http://www.w3.org/1999/xlink" x="0px" y="0px"
	 width="17.916px" height="20.495px" viewBox="0 0 17.916 20.495" enable-background="new 0 0 17.916 20.495" xml:space="preserve">
<g>
	<path d="M14.907,8.55h-0.911c-0.187,0-0.37,0.019-0.548,0.052V6.545c0-0.112-0.012-0.221-0.033-0.327
		c0.598-0.443,0.991-1.148,0.991-1.948c0-1.49-1.372-2.685-2.883-2.386c-0.5-0.526-1.212-0.823-1.946-0.786
		C9.109,0.42,8.33,0,7.499,0C6.824,0,6.186,0.268,5.717,0.734C5.592,0.683,5.464,0.642,5.333,0.612L5.17,0.58
		c-0.126-0.02-0.253-0.031-0.382-0.033c-0.189-0.015-0.371-0.014-0.55,0.001L4.189,0.548v0.004C3.115,0.66,2.211,1.296,1.855,2.183
		C0.801,2.383,0,3.312,0,4.422C0,5.197,0.39,5.88,0.982,6.292C0.97,6.375,0.957,6.458,0.957,6.545v12.309
		c0,0.905,0.736,1.641,1.641,1.641h9.209c0.905,0,1.641-0.736,1.641-1.641v-2.514c0.178,0.033,0.36,0.052,0.548,0.052h0.911
		c1.659,0,3.009-1.35,3.009-3.009v-1.823C17.916,9.901,16.566,8.55,14.907,8.55z M12.354,18.853c0,0.302-0.245,0.547-0.547,0.547
		H2.598c-0.302,0-0.547-0.245-0.547-0.547V6.545c0-0.302,0.245-0.547,0.547-0.547h9.209c0.302,0,0.547,0.245,0.547,0.547V18.853z
		 M12.841,5.28L12.841,5.28c-0.283-0.232-0.64-0.377-1.034-0.377H2.598c-0.417,0-0.793,0.161-1.083,0.417
		C1.26,5.103,1.094,4.783,1.094,4.422c0-0.651,0.529-1.182,1.181-1.184l0.448-0.002L2.81,2.797c0.102-0.514,0.636-1.057,1.452-1.152
		h0.603c0.245,0.017,0.481,0.097,0.689,0.234l0.452,0.299l0.303-0.449c0.268-0.397,0.713-0.635,1.191-0.635
		c0.556,0,1.05,0.315,1.292,0.823l0.184,0.387l0.42-0.086c0.572-0.115,1.155,0.124,1.478,0.597l0.24,0.352l0.4-0.147
		c0.161-0.059,0.311-0.088,0.46-0.088c0.738,0,1.338,0.6,1.338,1.338C13.312,4.675,13.126,5.035,12.841,5.28z M16.275,13.383
		c0,0.754-0.613,1.368-1.368,1.368h-0.911c-0.195,0-0.38-0.042-0.548-0.116v-4.326c0.168-0.074,0.353-0.116,0.548-0.116h0.911
		c0.754,0,1.368,0.613,1.368,1.368V13.383z"/>
	<rect x="2.598" y="8.003" width="9.21" height="10.85"/>
</g>
</svg>
